<?xml version="1.0" encoding="UTF-8" standalone="no"?>
<svg
   xmlns:dc="http://purl.org/dc/elements/1.1/"
   xmlns:cc="http://creativecommons.org/ns#"
   xmlns:rdf="http://www.w3.org/1999/02/22-rdf-syntax-ns#"
   xmlns:svg="http://www.w3.org/2000/svg"
   xmlns="http://www.w3.org/2000/svg"
   id="svg6481"
   version="1.1"
   viewBox="0 0 29.42601 35.052517"
   height="35.052517mm"
   width="29.42601mm">
  <defs
     id="defs6475" />
  <metadata
     id="metadata6478">
    <rdf:RDF>
      <cc:Work
         rdf:about="">
        <dc:format>image/svg+xml</dc:format>
        <dc:type
           rdf:resource="http://purl.org/dc/dcmitype/StillImage" />
        <dc:title></dc:title>
      </cc:Work>
    </rdf:RDF>
  </metadata>
  <g
     transform="translate(-52.259528,-34.511296)"
     id="layer1">
    <g
       id="g6273"
       transform="matrix(0.35277777,0,0,-0.35277777,-74.252593,200.70898)">
      <g
         id="g208"
         transform="translate(392.92857,387.54973)">
        <path
           d="m 0,0 c 1.493,-1.613 0.83,-0.897 0,0 1.374,-1.489 3.588,-10.82 4.735,-12.965 l 33.416,5.971 c -1.442,3.359 -3.009,6.673 -3.776,10.26 -1.436,6.72 2.01,12.512 4.59,18.486 4.641,10.747 9.134,20.392 6.539,32.35 C 41.002,74.86 18.93,87.13 -1.025,77.255 -11.99,71.831 -19.162,61.803 -20.146,49.68 -21.934,45.514 -34.163,34.673 -30.938,30.102 c 2.266,-3.21 7.479,-1.937 9.933,-4.884 2.886,-5.768 1.488,-12.424 3.136,-18.503 0.873,-3.219 3.548,-2.923 6.374,-2.958 C -6.188,3.693 -3.725,4.021 -0.011,0.01 -1.047,1.131 -2.33,2.52 0,0"
           style="fill:#e6e4e5;fill-opacity:1;fill-rule:nonzero;stroke:none"
           id="path210" />
      </g>
      <g
         id="g212"
         transform="translate(392.91787,387.56003)">
        <path
           d="M 0,0 C 0.005,-0.004 0.008,-0.008 0.011,-0.011 V -0.01 C 0.008,-0.006 0.005,-0.004 0,0"
           style="fill:#e6e4e5;fill-opacity:1;fill-rule:nonzero;stroke:none"
           id="path214" />
      </g>
      <g
         id="g216"
         transform="translate(422.15907,444.73873)">
        <path
           d="m 0,0 h -5.836 c 0,1.753 -1.752,3.173 -3.912,3.173 -2.16,0 -3.912,-1.42 -3.912,-3.173 h -5.837 c -0.347,0 -0.629,-0.282 -0.629,-0.629 v -4.029 c -2.161,0 -3.912,-1.421 -3.912,-3.174 0,-1.752 1.751,-3.174 3.912,-3.174 v -4.029 c 0,-0.345 0.282,-0.629 0.629,-0.629 h 5.219 c 0.346,0 0.624,0.057 0.618,0.123 v 0.063 c 0,1.753 1.752,3.174 3.912,3.174 2.16,0 3.912,-1.421 3.912,-3.174 v -0.063 c -0.008,-0.066 0.271,-0.123 0.618,-0.123 H 0 c 0.346,0 0.629,0.284 0.629,0.629 V -0.629 C 0.629,-0.282 0.346,0 0,0"
           style="fill:#30bec7;fill-opacity:1;fill-rule:nonzero;stroke:none"
           id="path218" />
      </g>
      <g
         id="g220"
         transform="translate(402.66787,427.22943)">
        <path
           d="m 0,0 h 5.836 c 0,1.751 1.751,3.173 3.913,3.173 2.159,0 3.912,-1.422 3.912,-3.173 h 5.836 c 0.346,0 0.629,-0.284 0.629,-0.63 v -4.029 c 2.16,0 3.912,-1.422 3.912,-3.173 0,-1.754 -1.752,-3.174 -3.912,-3.174 v -4.029 c 0,-0.346 -0.283,-0.63 -0.629,-0.63 h -5.219 c -0.346,0 -0.623,0.057 -0.617,0.124 v 0.063 c 0,1.752 -1.753,3.173 -3.912,3.173 -2.162,0 -3.913,-1.421 -3.913,-3.173 v -0.063 c 0.006,-0.067 -0.271,-0.124 -0.619,-0.124 H 0 c -0.347,0 -0.631,0.284 -0.631,0.63 V -0.63 C -0.631,-0.284 -0.347,0 0,0"
           style="fill:#f05727;fill-opacity:1;fill-rule:nonzero;stroke:none"
           id="path222" />
      </g>
      <g
         id="g224"
         transform="translate(383.76937,446.68543)">
        <path
           d="m 0,0 v -5.836 c -1.753,0 -3.173,-1.751 -3.173,-3.913 0,-2.161 1.42,-3.912 3.173,-3.912 v -5.838 c 0,-0.344 0.283,-0.627 0.629,-0.627 h 4.029 c 0,-2.161 1.422,-3.913 3.173,-3.913 1.754,0 3.175,1.752 3.175,3.913 h 4.028 c 0.346,0 0.63,0.283 0.63,0.627 v 5.221 c 0,0.345 -0.057,0.623 -0.123,0.617 h -0.064 c -1.751,0 -3.173,1.751 -3.173,3.912 0,2.162 1.422,3.913 3.173,3.913 h 0.064 c 0.066,-0.006 0.123,0.272 0.123,0.618 V 0 c 0,0.345 -0.284,0.629 -0.63,0.629 H 0.629 C 0.283,0.629 0,0.345 0,0"
           style="fill:#242e3c;fill-opacity:1;fill-rule:nonzero;stroke:none"
           id="path226" />
      </g>
    </g>
  </g>
</svg>
