<svg id="Layer_1" data-name="Layer 1" xmlns="http://www.w3.org/2000/svg" viewBox="0 0 48 48"><defs><style>.cls-1{fill:#e79165;}.cls-2{fill:#e28156;}.cls-3{fill:#ffd0b0;}.cls-4{fill:#ffbf8e;}</style></defs><title>log, wood, outdoors, nature, ecology</title><rect class="cls-1" x="5.4" y="23.02" width="21.54" height="13.71"/><path class="cls-2" d="M30.36,34.77a4.3,4.3,0,0,1-3.42,2H5.4a4.3,4.3,0,0,1-3.43-2Z"/><ellipse class="cls-3" cx="5.4" cy="29.88" rx="4.9" ry="6.85"/><ellipse class="cls-4" cx="5.4" cy="29.88" rx="1.96" ry="3.92"/><path class="cls-2" d="M26.94,23v3.92H13.23A6.57,6.57,0,0,1,7.5,23Z"/><path class="cls-1" d="M34.77,11.27H13.23c-2.7,0-4.9,3.07-4.9,6.85S10.53,25,13.23,25H34.77c2.7,0,4.9-3.07,4.9-6.86S37.47,11.27,34.77,11.27Z"/><ellipse class="cls-3" cx="13.23" cy="18.13" rx="4.9" ry="6.85"/><ellipse class="cls-4" cx="13.23" cy="18.13" rx="1.96" ry="3.92"/><path class="cls-2" d="M39.2,21.06C38.41,23.38,36.72,25,34.77,25H15.33a6.57,6.57,0,0,1,5.73-3.92Z"/><path class="cls-2" d="M26.94,23V36.73H16.71a9.92,9.92,0,0,1-2.5-6.85A9.93,9.93,0,0,1,16.71,23Z"/><path class="cls-1" d="M47.5,29.88A8.41,8.41,0,0,1,46,34.77a4.3,4.3,0,0,1-3.43,2H21.06a4.3,4.3,0,0,1-3.42-2,8.34,8.34,0,0,1-1.47-4.89c0-3.79,2.19-6.86,4.89-6.86H42.6C45.31,23,47.5,26.09,47.5,29.88Z"/><path class="cls-2" d="M46,34.77a4.3,4.3,0,0,1-3.43,2H21.06a4.3,4.3,0,0,1-3.42-2Z"/><ellipse class="cls-3" cx="21.06" cy="29.88" rx="4.9" ry="6.85"/><ellipse class="cls-4" cx="21.06" cy="29.88" rx="1.96" ry="3.92"/><rect class="cls-2" x="34.77" y="29.88" width="9.79" height="1.96"/><rect class="cls-2" x="28.9" y="29.88" width="2.94" height="1.96"/><rect class="cls-2" x="26.94" y="24.98" width="14.69" height="1.96"/><rect class="cls-2" x="27.92" y="13.23" width="9.79" height="1.96"/><rect class="cls-2" x="22.04" y="13.23" width="2.94" height="1.96"/><rect class="cls-2" x="20.08" y="17.15" width="14.69" height="1.96"/></svg>