<?xml version="1.0" encoding="UTF-8" standalone="no"?>
<!-- Created with Inkscape (http://www.inkscape.org/) -->

<svg
   xmlns:dc="http://purl.org/dc/elements/1.1/"
   xmlns:cc="http://creativecommons.org/ns#"
   xmlns:rdf="http://www.w3.org/1999/02/22-rdf-syntax-ns#"
   xmlns:svg="http://www.w3.org/2000/svg"
   xmlns="http://www.w3.org/2000/svg"
   xmlns:sodipodi="http://sodipodi.sourceforge.net/DTD/sodipodi-0.dtd"
   xmlns:inkscape="http://www.inkscape.org/namespaces/inkscape"
   width="30.233158mm"
   height="30.240213mm"
   viewBox="0 0 30.233158 30.240214"
   version="1.1"
   id="svg2855"
   inkscape:version="0.92.3 (2405546, 2018-03-11)"
   sodipodi:docname="mental.svg">
  <defs
     id="defs2849">
    <clipPath
       clipPathUnits="userSpaceOnUse"
       id="clipPath284">
      <path
         d="M 71.2603,414.763 H 129.39 V 355.928 H 71.2603 Z"
         id="path282"
         inkscape:connector-curvature="0" />
    </clipPath>
    <clipPath
       clipPathUnits="userSpaceOnUse"
       id="clipPath308">
      <path
         d="M 90.4834,414.765 H 113.129 V 387.279 H 90.4834 Z"
         id="path306"
         inkscape:connector-curvature="0" />
    </clipPath>
    <clipPath
       clipPathUnits="userSpaceOnUse"
       id="clipPath324">
      <path
         d="M 71.2578,395.541 H 98.7432 V 372.894 H 71.2578 Z"
         id="path322"
         inkscape:connector-curvature="0" />
    </clipPath>
    <clipPath
       clipPathUnits="userSpaceOnUse"
       id="clipPath32">
      <path
         d="m 172.846,419.929 h 63.413 v -64.416 h -63.413 z"
         id="path30"
         inkscape:connector-curvature="0" />
    </clipPath>
    <clipPath
       clipPathUnits="userSpaceOnUse"
       id="clipPath68">
      <path
         d="m 194.249,389.167 h 2.419 v -6.976 h -2.419 z"
         id="path66"
         inkscape:connector-curvature="0" />
    </clipPath>
    <clipPath
       clipPathUnits="userSpaceOnUse"
       id="clipPath88">
      <path
         d="m 182.895,419.764 h 13.774 v -34.621 h -13.774 z"
         id="path86"
         inkscape:connector-curvature="0" />
    </clipPath>
    <clipPath
       clipPathUnits="userSpaceOnUse"
       id="clipPath116">
      <path
         d="m 180.474,403.877 h 4.84 v -4.839 h -4.84 z"
         id="path114"
         inkscape:connector-curvature="0" />
    </clipPath>
    <clipPath
       clipPathUnits="userSpaceOnUse"
       id="clipPath1024">
      <path
         d="m 282.342,409.691 h 60.883 v -54.18 h -60.883 z"
         id="path1022"
         inkscape:connector-curvature="0" />
    </clipPath>
    <clipPath
       clipPathUnits="userSpaceOnUse"
       id="clipPath1052">
      <path
         d="m 283.202,406.331 h 32.976 v -25.352 h -32.976 z"
         id="path1050"
         inkscape:connector-curvature="0" />
    </clipPath>
    <clipPath
       clipPathUnits="userSpaceOnUse"
       id="clipPath152">
      <path
         d="m 390.112,408.137 h 59.493 v -52.266 h -59.493 z"
         id="path150"
         inkscape:connector-curvature="0" />
    </clipPath>
    <clipPath
       clipPathUnits="userSpaceOnUse"
       id="clipPath436">
      <path
         d="m 76.1875,311.719 h 52.4375 v -57.38 H 76.1875 Z"
         id="path434"
         inkscape:connector-curvature="0" />
    </clipPath>
    <clipPath
       clipPathUnits="userSpaceOnUse"
       id="clipPath362">
      <path
         d="m 174.225,300.873 h 60.873 V 254.25 h -60.873 z"
         id="path360"
         inkscape:connector-curvature="0" />
    </clipPath>
    <clipPath
       clipPathUnits="userSpaceOnUse"
       id="clipPath468">
      <path
         d="m 298.652,317.979 h 43.444 v -63.754 h -43.444 z"
         id="path466"
         inkscape:connector-curvature="0" />
    </clipPath>
    <clipPath
       clipPathUnits="userSpaceOnUse"
       id="clipPath514">
      <path
         d="m 303.433,318.555 h 7.985 v -53.114 h -7.985 z"
         id="path512"
         inkscape:connector-curvature="0" />
    </clipPath>
    <clipPath
       clipPathUnits="userSpaceOnUse"
       id="clipPath534">
      <path
         d="m 394.7,310.585 h 55.464 V 253.477 H 394.7 Z"
         id="path532"
         inkscape:connector-curvature="0" />
    </clipPath>
    <clipPath
       clipPathUnits="userSpaceOnUse"
       id="clipPath578">
      <path
         d="m 400.235,305.683 h 20.764 V 278.91 h -20.764 z"
         id="path576"
         inkscape:connector-curvature="0" />
    </clipPath>
    <clipPath
       clipPathUnits="userSpaceOnUse"
       id="clipPath594">
      <path
         d="m 417.893,311.556 h 6.46 v -9.735 h -6.46 z"
         id="path592"
         inkscape:connector-curvature="0" />
    </clipPath>
    <clipPath
       clipPathUnits="userSpaceOnUse"
       id="clipPath734">
      <path
         d="M 73.8125,208.741 H 128.991 V 151.965 H 73.8125 Z"
         id="path732"
         inkscape:connector-curvature="0" />
    </clipPath>
    <clipPath
       clipPathUnits="userSpaceOnUse"
       id="clipPath760">
      <path
         d="m 78.6353,203.375 h 21.7127 v -2.04 H 78.6353 Z"
         id="path758"
         inkscape:connector-curvature="0" />
    </clipPath>
    <clipPath
       clipPathUnits="userSpaceOnUse"
       id="clipPath774">
      <path
         d="m 89.3618,199.823 h 10.9862 v -2.04 H 89.3618 Z"
         id="path772"
         inkscape:connector-curvature="0" />
    </clipPath>
    <clipPath
       clipPathUnits="userSpaceOnUse"
       id="clipPath788">
      <path
         d="m 89.3618,196.272 h 10.9862 v -2.04 H 89.3618 Z"
         id="path786"
         inkscape:connector-curvature="0" />
    </clipPath>
    <clipPath
       clipPathUnits="userSpaceOnUse"
       id="clipPath802">
      <path
         d="m 89.3618,192.721 h 10.9862 v -2.04 H 89.3618 Z"
         id="path800"
         inkscape:connector-curvature="0" />
    </clipPath>
    <clipPath
       clipPathUnits="userSpaceOnUse"
       id="clipPath816">
      <path
         d="m 78.6353,189.17 h 21.7127 v -2.039 H 78.6353 Z"
         id="path814"
         inkscape:connector-curvature="0" />
    </clipPath>
    <clipPath
       clipPathUnits="userSpaceOnUse"
       id="clipPath830">
      <path
         d="m 78.6353,185.619 h 10.5126 v -2.04 H 78.6353 Z"
         id="path828"
         inkscape:connector-curvature="0" />
    </clipPath>
    <clipPath
       clipPathUnits="userSpaceOnUse"
       id="clipPath844">
      <path
         d="m 78.6353,182.068 h 10.5126 v -2.041 H 78.6353 Z"
         id="path842"
         inkscape:connector-curvature="0" />
    </clipPath>
    <clipPath
       clipPathUnits="userSpaceOnUse"
       id="clipPath858">
      <path
         d="m 78.6353,178.517 h 10.5126 v -2.039 H 78.6353 Z"
         id="path856"
         inkscape:connector-curvature="0" />
    </clipPath>
    <clipPath
       clipPathUnits="userSpaceOnUse"
       id="clipPath184">
      <path
         d="m 181.407,206.457 h 54.802 v -54.981 h -54.802 z"
         id="path182"
         inkscape:connector-curvature="0" />
    </clipPath>
    <clipPath
       clipPathUnits="userSpaceOnUse"
       id="clipPath216">
      <path
         d="m 196.562,210.224 h 18.923 v -41.251 h -18.923 z"
         id="path214"
         inkscape:connector-curvature="0" />
    </clipPath>
    <clipPath
       clipPathUnits="userSpaceOnUse"
       id="clipPath690">
      <path
         d="m 276.71,190.82 h 64.995 V 152.422 H 276.71 Z"
         id="path688"
         inkscape:connector-curvature="0" />
    </clipPath>
    <clipPath
       clipPathUnits="userSpaceOnUse"
       id="clipPath714">
      <path
         d="m 276.575,190.708 h 53.644 v -14.025 h -53.644 z"
         id="path712"
         inkscape:connector-curvature="0" />
    </clipPath>
    <clipPath
       clipPathUnits="userSpaceOnUse"
       id="clipPath618">
      <path
         d="m 404.312,209.219 h 45.727 v -56.872 h -45.727 z"
         id="path616"
         inkscape:connector-curvature="0" />
    </clipPath>
    <clipPath
       clipPathUnits="userSpaceOnUse"
       id="clipPath638">
      <path
         d="m 394.216,212.551 h 34.63 v -25.362 h -34.63 z"
         id="path636"
         inkscape:connector-curvature="0" />
    </clipPath>
  </defs>
  <sodipodi:namedview
     id="base"
     pagecolor="#ffffff"
     bordercolor="#666666"
     borderopacity="1.0"
     inkscape:pageopacity="0.0"
     inkscape:pageshadow="2"
     inkscape:zoom="0.35"
     inkscape:cx="-558.67873"
     inkscape:cy="-311.39274"
     inkscape:document-units="mm"
     inkscape:current-layer="layer1"
     showgrid="false"
     fit-margin-top="1"
     fit-margin-right="1"
     fit-margin-bottom="1"
     fit-margin-left="1"
     inkscape:window-width="1853"
     inkscape:window-height="1025"
     inkscape:window-x="67"
     inkscape:window-y="27"
     inkscape:window-maximized="1" />
  <metadata
     id="metadata2852">
    <rdf:RDF>
      <cc:Work
         rdf:about="">
        <dc:format>image/svg+xml</dc:format>
        <dc:type
           rdf:resource="http://purl.org/dc/dcmitype/StillImage" />
        <dc:title></dc:title>
      </cc:Work>
    </rdf:RDF>
  </metadata>
  <g
     inkscape:label="Capa 1"
     inkscape:groupmode="layer"
     id="layer1"
     transform="translate(-81.671244,-36.203789)">
    <g
       transform="matrix(0.35277777,0,0,-0.35277777,-48.069185,118.83212)"
       id="g5404">
      <g
         transform="translate(450.6338,191.3564)"
         id="g608">
        <path
           inkscape:connector-curvature="0"
           id="path610"
           style="fill:#f68a65;fill-opacity:1;fill-rule:nonzero;stroke:none"
           d="m 0,0 c 0,-0.269 0,-0.539 -0.01,-0.798 -0.029,-1.447 -0.132,-2.855 -0.31,-4.251 -0.18,-1.477 -0.449,-2.925 -0.797,-4.352 -3.614,-15.11 -15.83,-26.876 -31.189,-29.861 -1.048,-0.21 -2.106,-0.37 -3.185,-0.489 -0.736,-0.1 -1.506,-0.149 -2.265,-0.199 -0.748,-0.05 -1.497,-0.07 -2.256,-0.07 -2.225,0 -4.41,0.179 -6.546,0.529 -18.992,3.124 -33.473,19.62 -33.473,39.491 0,22.097 17.913,40.031 40.019,40.031 21.449,0 38.964,-16.886 39.973,-38.085 C -0.01,1.298 0,0.649 0,0" />
      </g>
      <g
         id="g612">
        <g
           id="g614" />
        <g
           id="g626">
          <g
             style="opacity:0.30000299"
             id="g624"
             clip-path="url(#clipPath618)">
            <g
               id="g622"
               transform="translate(424.3467,209.2188)">
              <path
                 inkscape:connector-curvature="0"
                 id="path620"
                 style="fill:#f68a65;fill-opacity:1;fill-rule:nonzero;stroke:none"
                 d="M 0,0 -20.034,-41.057 -4.84,-56.872 c 14.802,3.344 26.488,14.888 30.01,29.608 0.206,0.844 0.374,1.697 0.522,2.555 z" />
            </g>
          </g>
        </g>
      </g>
      <g
         transform="translate(425.2852,167.8467)"
         id="g628">
        <path
           inkscape:connector-curvature="0"
           id="path630"
           style="fill:#ffffff;fill-opacity:1;fill-rule:nonzero;stroke:none"
           d="m 0,0 c 0,0 -0.855,11.04 3.158,18.787 4.021,7.752 2.723,27.825 -18.933,27.825 -21.657,0 -16.922,-20.655 -16.922,-20.655 0,0 -4.881,-5.017 -4.881,-6.306 0,-1.292 3.585,-3.443 3.585,-3.443 l -0.86,-2.186 c 0,0 2.777,0.171 2.777,-1.835 0,-2.011 -2.679,-2.106 -2.679,-2.106 0,0 1.531,-0.519 1.531,-1.812 0,-1.288 -1.775,-5.399 2.673,-5.399 4.45,0 9.614,1.714 9.614,1.001 0,-0.718 0.143,-3.871 0.143,-3.871 z" />
      </g>
      <g
         id="g632">
        <g
           id="g634" />
        <g
           id="g646">
          <g
             style="opacity:0.5"
             id="g644"
             clip-path="url(#clipPath638)">
            <g
               id="g642"
               transform="translate(394.2158,201.2949)">
              <path
                 inkscape:connector-curvature="0"
                 id="path640"
                 style="fill:#d1d3d4;fill-opacity:1;fill-rule:nonzero;stroke:none"
                 d="M 0,0 C 0,0 1.472,7.181 6.628,9.589 14.275,13.164 32,12.044 34.557,-4.379 34.992,-7.186 33.479,-11.96 30.19,-13.549 21.149,-17.915 7.096,5.003 0,0" />
            </g>
          </g>
        </g>
      </g>
      <g
         transform="translate(414.7998,204.7158)"
         id="g648">
        <path
           inkscape:connector-curvature="0"
           id="path650"
           style="fill:#edc936;fill-opacity:1;fill-rule:nonzero;stroke:none"
           d="m 0,0 c -0.399,-0.681 -1.273,-0.908 -1.952,-0.509 -0.681,0.399 -0.906,1.272 -0.507,1.953 0.396,0.68 1.271,0.907 1.951,0.508 C 0.173,1.553 0.399,0.68 0,0 M 1.981,-2.564 3.205,-0.48 2.24,0.085 c 0.018,0.1 0.032,0.202 0.042,0.304 L 3.364,0.671 2.757,3.007 1.675,2.726 C 1.618,2.809 1.553,2.89 1.489,2.97 L 2.055,3.934 -0.029,5.157 -0.595,4.192 C -0.693,4.209 -0.798,4.225 -0.898,4.233 L -1.179,5.316 -3.517,4.707 -3.234,3.625 C -3.316,3.569 -3.399,3.505 -3.479,3.44 L -4.442,4.007 -5.666,1.924 -4.701,1.357 C -4.719,1.257 -4.735,1.154 -4.743,1.054 l -1.083,-0.282 0.61,-2.336 1.082,0.281 c 0.057,-0.083 0.12,-0.165 0.186,-0.244 l -0.568,-0.964 2.082,-1.223 0.566,0.964 c 0.102,-0.017 0.203,-0.033 0.305,-0.041 l 0.283,-1.083 2.335,0.608 -0.284,1.082 c 0.086,0.057 0.168,0.121 0.246,0.186 z" />
      </g>
      <g
         transform="translate(408.3252,209.5869)"
         id="g652">
        <path
           inkscape:connector-curvature="0"
           id="path654"
           style="fill:#edc936;fill-opacity:1;fill-rule:nonzero;stroke:none"
           d="m 0,0 c -0.123,-0.209 -0.394,-0.277 -0.603,-0.155 -0.21,0.123 -0.279,0.392 -0.156,0.6 0.122,0.208 0.392,0.277 0.6,0.155 C 0.052,0.477 0.122,0.209 0,0 M 0.609,-0.789 0.986,-0.15 0.688,0.024 c 0.007,0.031 0.01,0.063 0.015,0.094 L 1.036,0.203 0.85,0.921 0.517,0.835 C 0.499,0.861 0.479,0.886 0.458,0.91 L 0.634,1.205 -0.008,1.583 -0.184,1.287 c -0.031,0.005 -0.063,0.01 -0.093,0.014 L -0.365,1.633 -1.085,1.447 -0.997,1.115 C -1.023,1.099 -1.048,1.079 -1.072,1.059 L -1.369,1.233 -1.748,0.595 -1.449,0.42 C -1.455,0.39 -1.46,0.357 -1.462,0.326 l -0.335,-0.084 0.189,-0.719 0.333,0.086 c 0.018,-0.025 0.038,-0.05 0.057,-0.075 l -0.174,-0.295 0.642,-0.378 0.175,0.296 c 0.031,-0.005 0.061,-0.011 0.093,-0.013 l 0.086,-0.332 0.721,0.184 -0.088,0.332 c 0.026,0.019 0.05,0.038 0.076,0.058 z" />
      </g>
      <g
         transform="translate(398.376,204.1289)"
         id="g656">
        <path
           inkscape:connector-curvature="0"
           id="path658"
           style="fill:#e54115;fill-opacity:1;fill-rule:nonzero;stroke:none"
           d="m 0,0 c -0.124,-0.209 -0.392,-0.277 -0.603,-0.155 -0.208,0.123 -0.279,0.392 -0.156,0.6 0.124,0.208 0.392,0.278 0.602,0.155 C 0.052,0.477 0.122,0.209 0,0 M 0.609,-0.789 0.986,-0.15 0.69,0.024 C 0.695,0.055 0.7,0.087 0.703,0.118 L 1.036,0.203 0.85,0.921 0.517,0.835 C 0.499,0.861 0.479,0.887 0.458,0.91 L 0.634,1.205 -0.008,1.583 -0.184,1.287 c -0.031,0.005 -0.061,0.01 -0.094,0.014 L -0.365,1.633 -1.084,1.447 -0.996,1.115 C -1.023,1.099 -1.048,1.079 -1.072,1.059 L -1.369,1.233 -1.746,0.595 -1.449,0.42 C -1.454,0.39 -1.46,0.357 -1.462,0.327 l -0.333,-0.085 0.187,-0.719 0.333,0.086 c 0.017,-0.025 0.037,-0.05 0.056,-0.075 l -0.174,-0.295 0.642,-0.378 0.176,0.296 c 0.031,-0.005 0.061,-0.011 0.093,-0.012 l 0.086,-0.333 0.721,0.184 -0.088,0.332 c 0.026,0.019 0.05,0.038 0.076,0.058 z" />
      </g>
      <g
         transform="translate(404.9434,204.8926)"
         id="g660">
        <path
           inkscape:connector-curvature="0"
           id="path662"
           style="fill:#253d48;fill-opacity:1;fill-rule:nonzero;stroke:none"
           d="m 0,0 c -0.303,-0.516 -0.963,-0.688 -1.479,-0.385 -0.514,0.3 -0.685,0.961 -0.382,1.477 C -1.56,1.605 -0.9,1.777 -0.387,1.475 0.13,1.173 0.302,0.514 0,0 m 1.498,-1.939 0.924,1.575 -0.73,0.427 c 0.015,0.076 0.027,0.154 0.035,0.23 L 2.545,0.507 2.082,2.273 1.267,2.06 C 1.223,2.123 1.174,2.185 1.126,2.245 L 1.553,2.975 -0.022,3.899 -0.448,3.17 C -0.524,3.183 -0.603,3.194 -0.679,3.201 L -0.894,4.021 -2.659,3.56 -2.446,2.741 C -2.51,2.698 -2.571,2.649 -2.632,2.601 L -3.361,3.029 -4.285,1.455 -3.556,1.025 C -3.57,0.95 -3.582,0.873 -3.587,0.796 l -0.818,-0.213 0.46,-1.767 0.818,0.212 c 0.042,-0.063 0.091,-0.124 0.14,-0.184 l -0.429,-0.729 1.575,-0.925 0.429,0.73 c 0.077,-0.014 0.151,-0.025 0.229,-0.032 l 0.213,-0.82 1.766,0.462 -0.211,0.818 c 0.063,0.043 0.123,0.09 0.185,0.139 z" />
      </g>
      <g
         transform="translate(412.8438,197.6377)"
         id="g664">
        <path
           inkscape:connector-curvature="0"
           id="path666"
           style="fill:#e54115;fill-opacity:1;fill-rule:nonzero;stroke:none"
           d="m 0,0 c 0,-0.424 -0.342,-0.766 -0.763,-0.766 -0.423,0 -0.763,0.342 -0.763,0.766 0,0.42 0.34,0.763 0.763,0.763 C -0.342,0.763 0,0.42 0,0 M 1.608,-0.647 V 0.646 H 1.011 C 0.993,0.697 0.972,0.747 0.946,0.796 L 1.371,1.221 0.459,2.134 0.034,1.71 c -0.05,0.023 -0.098,0.045 -0.152,0.063 v 0.6 h -1.291 v -0.6 C -1.463,1.755 -1.512,1.733 -1.563,1.71 L -1.984,2.134 -2.897,1.221 -2.475,0.796 C -2.498,0.747 -2.519,0.697 -2.538,0.646 h -0.6 v -1.293 h 0.6 c 0.019,-0.053 0.04,-0.102 0.063,-0.152 l -0.424,-0.425 0.915,-0.914 0.421,0.426 c 0.051,-0.024 0.1,-0.046 0.154,-0.063 v -0.599 h 1.291 v 0.599 c 0.054,0.017 0.102,0.039 0.152,0.063 l 0.425,-0.426 0.912,0.914 -0.425,0.425 c 0.026,0.05 0.047,0.099 0.065,0.152 z" />
      </g>
      <g
         transform="translate(422.7793,204.1709)"
         id="g668">
        <path
           inkscape:connector-curvature="0"
           id="path670"
           style="fill:#4ab9c5;fill-opacity:1;fill-rule:nonzero;stroke:none"
           d="m 0,0 c 0,-0.323 -0.264,-0.584 -0.585,-0.584 -0.325,0 -0.585,0.261 -0.585,0.584 0,0.323 0.26,0.585 0.585,0.585 C -0.264,0.585 0,0.323 0,0 M 1.229,-0.494 V 0.495 H 0.771 C 0.757,0.534 0.742,0.573 0.723,0.61 L 1.048,0.935 0.348,1.634 0.024,1.309 C -0.015,1.327 -0.053,1.343 -0.093,1.357 V 1.815 H -1.08 V 1.357 C -1.119,1.343 -1.158,1.327 -1.196,1.309 L -1.521,1.634 -2.219,0.935 -1.896,0.61 C -1.914,0.573 -1.929,0.534 -1.944,0.494 h -0.458 v -0.988 h 0.458 c 0.015,-0.04 0.03,-0.078 0.048,-0.116 l -0.323,-0.325 0.698,-0.699 0.325,0.325 c 0.038,-0.018 0.077,-0.034 0.116,-0.048 v -0.458 h 0.987 v 0.458 c 0.04,0.014 0.078,0.03 0.117,0.048 l 0.324,-0.325 0.7,0.699 -0.325,0.325 c 0.019,0.038 0.034,0.076 0.048,0.116 z" />
      </g>
      <g
         transform="translate(408.6895,200.5615)"
         id="g672">
        <path
           inkscape:connector-curvature="0"
           id="path674"
           style="fill:#4ab9c5;fill-opacity:1;fill-rule:nonzero;stroke:none"
           d="m 0,0 c -0.114,-0.236 -0.4,-0.335 -0.636,-0.22 -0.235,0.114 -0.333,0.4 -0.22,0.636 0.115,0.236 0.399,0.335 0.634,0.221 C 0.016,0.521 0.115,0.236 0,0 M 0.724,-0.801 1.075,-0.077 0.74,0.087 C 0.743,0.121 0.747,0.155 0.747,0.188 L 1.1,0.312 0.836,1.071 0.483,0.95 C 0.461,0.977 0.438,1.001 0.415,1.027 L 0.576,1.361 -0.146,1.714 -0.309,1.38 C -0.343,1.383 -0.377,1.385 -0.41,1.385 L -0.533,1.738 -1.29,1.476 -1.17,1.121 C -1.196,1.101 -1.221,1.077 -1.246,1.054 L -1.581,1.217 -1.932,0.493 -1.597,0.33 C -1.601,0.294 -1.602,0.262 -1.602,0.228 l -0.354,-0.124 0.267,-0.76 0.352,0.122 c 0.02,-0.026 0.042,-0.051 0.066,-0.075 l -0.162,-0.336 0.723,-0.353 0.162,0.335 c 0.034,-0.003 0.069,-0.006 0.103,-0.006 l 0.123,-0.353 0.759,0.263 -0.124,0.354 c 0.028,0.021 0.054,0.044 0.078,0.067 z" />
      </g>
      <g
         transform="translate(423.0566,195.29)"
         id="g676">
        <path
           inkscape:connector-curvature="0"
           id="path678"
           style="fill:#253d48;fill-opacity:1;fill-rule:nonzero;stroke:none"
           d="m 0,0 c 0,-1.034 -0.838,-1.873 -1.873,-1.873 -1.033,0 -1.871,0.839 -1.871,1.873 0,1.034 0.838,1.872 1.871,1.872 C -0.838,1.872 0,1.034 0,0 M 3.947,-1.585 V 1.584 H 2.48 C 2.434,1.71 2.383,1.836 2.326,1.956 L 3.364,2.995 1.122,5.234 0.086,4.196 c -0.123,0.058 -0.245,0.11 -0.373,0.156 V 5.819 H -3.455 V 4.352 C -3.582,4.306 -3.707,4.254 -3.828,4.198 L -4.866,5.237 -7.106,2.995 -6.07,1.957 C -6.125,1.836 -6.178,1.711 -6.223,1.584 h -1.468 v -3.169 h 1.468 c 0.045,-0.127 0.098,-0.251 0.153,-0.372 l -1.036,-1.037 2.24,-2.242 1.038,1.038 c 0.121,-0.056 0.246,-0.107 0.373,-0.154 v -1.467 h 3.168 v 1.467 c 0.128,0.047 0.25,0.098 0.373,0.156 l 1.036,-1.04 2.242,2.242 -1.038,1.037 c 0.057,0.121 0.108,0.246 0.154,0.372 z" />
      </g>
    </g>
  </g>
</svg>
