<?xml version="1.0" encoding="iso-8859-1"?>
<!-- Generator: Adobe Illustrator 19.0.0, SVG Export Plug-In . SVG Version: 6.00 Build 0)  -->
<svg version="1.1" id="Capa_1" xmlns="http://www.w3.org/2000/svg" xmlns:xlink="http://www.w3.org/1999/xlink" x="0px" y="0px"
	 viewBox="0 0 490 490" style="enable-background:new 0 0 490 490;" xml:space="preserve">
<g>
	<polygon points="97.843,223.825 85.522,212.321 71.594,227.255 99.458,253.254 155.953,187.598 140.48,174.279 	"/>
	<polygon points="97.843,324.324 85.522,312.819 71.594,327.753 99.458,353.752 155.953,288.096 140.48,274.778 	"/>
	<polygon points="97.848,424.832 85.526,413.327 71.589,428.242 99.453,454.261 155.953,388.604 140.48,375.286 	"/>
	<path d="M449.881,78.267l-9.306-6.44c-8.97-7.242-40.252-17.114-60.462,11.006l-51.571,74.512V97.925h-58.875
		c-7.857-15.726-22.271-27.927-33.778-35.778C232.44,26.887,206.54,0,174.978,0c-31.566,0-57.467,26.887-60.911,62.147
		c-11.509,7.851-25.927,20.052-33.783,35.778H21.41V490h307.132V329.958l132.345-191.219
		C474.514,119.03,469.58,91.915,449.881,78.267z M375.392,125.532l47.194,32.668L277.217,368.247l-47.358,17.994l0.159-50.673
		L375.392,125.532z M129.376,76.522l4.581-2.901l0.169-5.414c0.837-26.797,18.781-47.792,40.853-47.792
		c22.067,0,40.012,20.995,40.854,47.792l0.17,5.414l4.575,2.891c9.855,6.23,31.289,21.802,34.119,40.793
		c-11.843,3.489-38.211,9.919-71.583,9.919c-2.567,0-5.179-0.031-8.443-0.121c-36.951,1.257-66.599-6.061-79.409-9.819
		C98.092,98.305,119.526,82.743,129.376,76.522z M308.126,469.583H41.827V118.342h32.808c-0.144,2.355,0.638,13.628,0.638,13.628
		s34.216,15.672,99.706,15.672c68.085,0,99.705-15.672,99.705-15.672s0.781-11.272,0.637-13.628h32.805v68.501l-98.504,142.325
		l-0.27,86.7l81.044-30.794l17.73-25.617V469.583z M444.099,127.115l-9.893,14.295l-47.193-32.667l9.888-14.286
		c6.963-10.068,21.922-12.87,32.06-5.842l9.302,6.44C448.705,102.282,451.326,116.668,444.099,127.115z"/>
</g>
<g>
</g>
<g>
</g>
<g>
</g>
<g>
</g>
<g>
</g>
<g>
</g>
<g>
</g>
<g>
</g>
<g>
</g>
<g>
</g>
<g>
</g>
<g>
</g>
<g>
</g>
<g>
</g>
<g>
</g>
</svg>
