<?xml version="1.0" ?><!DOCTYPE svg  PUBLIC '-//W3C//DTD SVG 1.1//EN'  'http://www.w3.org/Graphics/SVG/1.1/DTD/svg11.dtd'><svg enable-background="new 0 0 1173.1 668.7" id="Слой_1" version="1.1" viewBox="0 0 1173.1 668.7" xml:space="preserve" xmlns="http://www.w3.org/2000/svg" xmlns:xlink="http://www.w3.org/1999/xlink"><g><g><polygon fill="#2C2D2D" points="311.6,211.8 327.7,183.9 343.9,211.8         " stroke="#2C2D2D" stroke-miterlimit="10" stroke-width="6"/><polygon fill="#2C2D2D" points="296.6,211.8 312.7,183.9 328.9,211.8         " stroke="#2C2D2D" stroke-miterlimit="10" stroke-width="6"/><polygon fill="#2C2D2D" points="281.6,211.8 297.7,183.9 313.9,211.8         " stroke="#2C2D2D" stroke-miterlimit="10" stroke-width="6"/><polygon fill="#2C2D2D" points="266.6,211.8 282.7,183.9 298.9,211.8         " stroke="#2C2D2D" stroke-miterlimit="10" stroke-width="6"/><polygon fill="#2C2D2D" points="251.6,211.8 267.7,183.9 283.9,211.8         " stroke="#2C2D2D" stroke-miterlimit="10" stroke-width="6"/><polygon fill="#2C2D2D" points="236.6,214.8 252.7,186.9 268.9,214.8         " stroke="#2C2D2D" stroke-miterlimit="10" stroke-width="6"/><polygon fill="#2C2D2D" points="221.6,214.8 237.7,186.9 253.9,214.8         " stroke="#2C2D2D" stroke-miterlimit="10" stroke-width="6"/><polygon fill="#2C2D2D" points="206.6,213.8 222.7,185.9 238.9,213.8         " stroke="#2C2D2D" stroke-miterlimit="10" stroke-width="6"/><polygon fill="#2C2D2D" points="191.6,215.8 207.7,187.9 223.9,215.8         " stroke="#2C2D2D" stroke-miterlimit="10" stroke-width="6"/><polygon fill="#2C2D2D" points="176.6,219.8 192.7,191.9 208.9,219.8         " stroke="#2C2D2D" stroke-miterlimit="10" stroke-width="6"/><polygon fill="#2C2D2D" points="161.6,221.8 177.7,193.9 193.9,221.8         " stroke="#2C2D2D" stroke-miterlimit="10" stroke-width="6"/><polygon fill="#2C2D2D" points="146.6,227.8 162.7,199.9 178.9,227.8         " stroke="#2C2D2D" stroke-miterlimit="10" stroke-width="6"/><polygon fill="#2C2D2D" points="139.4,235 144.9,203.2 169.7,223.9         " stroke="#2C2D2D" stroke-miterlimit="10" stroke-width="6"/><polygon fill="#2C2D2D" points="122.4,241 127.9,209.2 152.7,229.9         " stroke="#2C2D2D" stroke-miterlimit="10" stroke-width="6"/><polygon fill="#2C2D2D" points="107.4,248 112.9,216.2 137.7,236.9         " stroke="#2C2D2D" stroke-miterlimit="10" stroke-width="6"/><polygon fill="#2C2D2D" points="90.4,254 95.9,222.2 120.7,242.9         " stroke="#2C2D2D" stroke-miterlimit="10" stroke-width="6"/><polygon fill="#2C2D2D" points="89.1,267.4 80.5,236.3 111.8,244.4         " stroke="#2C2D2D" stroke-miterlimit="10" stroke-width="6"/><polygon fill="#2C2D2D" points="78.1,278.4 69.5,247.3 100.8,255.4         " stroke="#2C2D2D" stroke-miterlimit="10" stroke-width="6"/><polygon fill="#2C2D2D" points="81.3,287.9 59,264.6 90.3,256.8         " stroke="#2C2D2D" stroke-miterlimit="10" stroke-width="6"/><polygon fill="#2C2D2D" points="89.8,292.5 58.4,284.8 80.7,261.5         " stroke="#2C2D2D" stroke-miterlimit="10" stroke-width="6"/><polygon fill="#2C2D2D" points="93.8,300.9 61.6,303.3 75.6,274.2         " stroke="#2C2D2D" stroke-miterlimit="10" stroke-width="6"/><polygon fill="#2C2D2D" points="103.9,308.4 72.8,317.3 80.7,285.9         " stroke="#2C2D2D" stroke-miterlimit="10" stroke-width="6"/><polygon fill="#2C2D2D" points="114.8,314.8 85.6,328.6 88.3,296.4         " stroke="#2C2D2D" stroke-miterlimit="10" stroke-width="6"/><polygon fill="#2C2D2D" points="126.8,321.8 97.6,335.6 100.3,303.4         " stroke="#2C2D2D" stroke-miterlimit="10" stroke-width="6"/><polygon fill="#2C2D2D" points="139.8,328.8 110.6,342.6 113.3,310.4         " stroke="#2C2D2D" stroke-miterlimit="10" stroke-width="6"/><polygon fill="#2C2D2D" points="153.8,333.8 124.6,347.6 127.3,315.4         " stroke="#2C2D2D" stroke-miterlimit="10" stroke-width="6"/><polygon fill="#2C2D2D" points="165.9,333.4 140.7,353.5 135.9,321.5         " stroke="#2C2D2D" stroke-miterlimit="10" stroke-width="6"/><polygon fill="#2C2D2D" points="177.3,331.5 158.3,357.6 145.2,328.1         " stroke="#2C2D2D" stroke-miterlimit="10" stroke-width="6"/><polygon fill="#2C2D2D" points="190.3,334.5 171.3,360.6 158.2,331.1         " stroke="#2C2D2D" stroke-miterlimit="10" stroke-width="6"/><polygon fill="#2C2D2D" points="199.3,334.5 180.3,360.6 167.2,331.1         " stroke="#2C2D2D" stroke-miterlimit="10" stroke-width="6"/><polygon fill="#2C2D2D" points="211.3,336.5 192.3,362.6 179.2,333.1         " stroke="#2C2D2D" stroke-miterlimit="10" stroke-width="6"/><polygon fill="#2C2D2D" points="222.3,338.5 203.3,364.6 190.2,335.1         " stroke="#2C2D2D" stroke-miterlimit="10" stroke-width="6"/><polygon fill="#2C2D2D" points="233.3,341.5 214.3,367.6 201.2,338.1         " stroke="#2C2D2D" stroke-miterlimit="10" stroke-width="6"/><polygon fill="#2C2D2D" points="243.3,342.5 224.3,368.6 211.2,339.1         " stroke="#2C2D2D" stroke-miterlimit="10" stroke-width="6"/><polygon fill="#2C2D2D" points="252.3,343.5 233.3,369.6 220.2,340.1         " stroke="#2C2D2D" stroke-miterlimit="10" stroke-width="6"/><polygon fill="#2C2D2D" points="263.3,345.5 244.3,371.6 231.2,342.1         " stroke="#2C2D2D" stroke-miterlimit="10" stroke-width="6"/><polygon fill="#2C2D2D" points="276.3,346.5 257.3,372.6 244.2,343.1         " stroke="#2C2D2D" stroke-miterlimit="10" stroke-width="6"/><polygon fill="#2C2D2D" points="276.3,345.5 257.3,371.6 244.2,342.1         " stroke="#2C2D2D" stroke-miterlimit="10" stroke-width="6"/><polygon fill="#2C2D2D" points="289.3,347.5 270.3,373.6 257.2,344.1         " stroke="#2C2D2D" stroke-miterlimit="10" stroke-width="6"/><polygon fill="#2C2D2D" points="302.3,349.5 283.3,375.6 270.2,346.1         " stroke="#2C2D2D" stroke-miterlimit="10" stroke-width="6"/><polygon fill="#2C2D2D" points="317.3,350.5 298.3,376.6 285.2,347.1         " stroke="#2C2D2D" stroke-miterlimit="10" stroke-width="6"/><polygon fill="#2C2D2D" points="331.3,351.5 312.3,377.6 299.2,348.1         " stroke="#2C2D2D" stroke-miterlimit="10" stroke-width="6"/><polygon fill="#2C2D2D" points="345.3,352.5 326.3,378.6 313.2,349.1         " stroke="#2C2D2D" stroke-miterlimit="10" stroke-width="6"/><polygon fill="#2C2D2D" points="359.3,353.5 340.3,379.6 327.2,350.1         " stroke="#2C2D2D" stroke-miterlimit="10" stroke-width="6"/><polygon fill="#2C2D2D" points="374.3,352.5 355.3,378.6 342.2,349.1         " stroke="#2C2D2D" stroke-miterlimit="10" stroke-width="6"/><polygon fill="#2C2D2D" points="389.3,353.5 370.3,379.6 357.2,350.1         " stroke="#2C2D2D" stroke-miterlimit="10" stroke-width="6"/><polygon fill="#2C2D2D" points="405.3,350.5 386.3,376.6 373.2,347.1         " stroke="#2C2D2D" stroke-miterlimit="10" stroke-width="6"/><polygon fill="#2C2D2D" points="421.3,350.5 402.3,376.6 389.2,347.1         " stroke="#2C2D2D" stroke-miterlimit="10" stroke-width="6"/><polygon fill="#2C2D2D" points="437.3,350.5 418.3,376.6 405.2,347.1         " stroke="#2C2D2D" stroke-miterlimit="10" stroke-width="6"/><polygon fill="#2C2D2D" points="454.3,348.5 435.3,374.6 422.2,345.1         " stroke="#2C2D2D" stroke-miterlimit="10" stroke-width="6"/><polygon fill="#2C2D2D" points="472.3,344.5 453.3,370.6 440.2,341.1         " stroke="#2C2D2D" stroke-miterlimit="10" stroke-width="6"/><polygon fill="#2C2D2D" points="490.3,340.5 471.3,366.6 458.2,337.1         " stroke="#2C2D2D" stroke-miterlimit="10" stroke-width="6"/><polygon fill="#2C2D2D" points="508.3,336.5 489.3,362.6 476.2,333.1         " stroke="#2C2D2D" stroke-miterlimit="10" stroke-width="6"/><polygon fill="#2C2D2D" points="526.3,332.5 507.3,358.6 494.2,329.1         " stroke="#2C2D2D" stroke-miterlimit="10" stroke-width="6"/><polygon fill="#2C2D2D" points="326.6,211.8 342.7,183.9 358.9,211.8         " stroke="#2C2D2D" stroke-miterlimit="10" stroke-width="6"/><polygon fill="#2C2D2D" points="387.6,211.8 403.7,183.9 419.9,211.8         " stroke="#2C2D2D" stroke-miterlimit="10" stroke-width="6"/><polygon fill="#2C2D2D" points="403.6,215.8 419.7,187.9 435.9,215.8         " stroke="#2C2D2D" stroke-miterlimit="10" stroke-width="6"/><polygon fill="#2C2D2D" points="421.6,216.8 437.7,188.9 453.9,216.8         " stroke="#2C2D2D" stroke-miterlimit="10" stroke-width="6"/><polygon fill="#2C2D2D" points="437.6,218.8 453.7,190.9 469.9,218.8         " stroke="#2C2D2D" stroke-miterlimit="10" stroke-width="6"/><polygon fill="#2C2D2D" points="453.6,221.8 469.7,193.9 485.9,221.8         " stroke="#2C2D2D" stroke-miterlimit="10" stroke-width="6"/><polygon points="463.4,221.4 486.5,198.8 494.5,230.1    " stroke="#2C2D2D" stroke-miterlimit="10" stroke-width="6"/><polygon points="479.4,223.4 502.5,200.8 510.5,232.1    " stroke="#2C2D2D" stroke-miterlimit="10" stroke-width="6"/><polygon points="492.4,228.4 515.5,205.8 523.5,237.1    " stroke="#2C2D2D" stroke-miterlimit="10" stroke-width="6"/><polygon fill="#2C2D2D" points="341.6,211.8 357.7,183.9 373.9,211.8         " stroke="#2C2D2D" stroke-miterlimit="10" stroke-width="6"/><polygon fill="#2C2D2D" points="356.6,211.8 372.7,183.9 388.9,211.8         " stroke="#2C2D2D" stroke-miterlimit="10" stroke-width="6"/><polygon fill="#2C2D2D" points="371.6,211.8 387.7,183.9 403.9,211.8         " stroke="#2C2D2D" stroke-miterlimit="10" stroke-width="6"/><linearGradient gradientUnits="userSpaceOnUse" id="SVGID_1_" x1="78.8969" x2="250.3274" y1="216.8684" y2="337.2347"><stop offset="0" style="stop-color:#FFFFFF"/><stop offset="1" style="stop-color:#B3B3B3"/></linearGradient><polygon fill="url(#SVGID_1_)" points="172.1,257.3 180.7,232.4      180.6,257.6 197.6,233.7 189,258.5 214,236.1 196.9,260 229.3,239.6 204.2,262.1 243.2,244.3 210.8,264.6 255.3,249.8      216.4,267.6 265.4,256.2 220.8,270.9 273.2,263.1 224.1,274.6 278.5,270.6 226.1,278.4 281.2,278.4 226.8,282.3 281.2,286.2      226.1,286.2 278.5,294 224.1,290 273.2,301.4 220.8,293.6 265.4,308.4 216.4,297 255.3,314.8 210.8,300 243.2,320.3 204.2,302.5      229.3,324.9 196.9,304.6 189,306.1 180.6,307 172.1,307.3 163.5,307 155.1,306.1 147.2,304.6 114.8,324.9 139.9,302.5      100.9,320.3 133.3,300 88.8,314.8 127.8,297 78.7,308.4 123.3,293.6 70.9,301.4 120,290 65.6,294 118,286.2 62.9,286.2      117.3,282.3 62.9,278.4 118,278.4 65.6,270.6 120,274.6 70.9,263.1 123.3,270.9 78.7,256.2 127.8,267.6 88.8,249.8 133.3,264.6      100.9,244.3 139.9,262.1 114.8,239.6 147.2,260 155.1,258.5 163.5,257.6 163.5,232.4    " stroke="#2C2D2D" stroke-miterlimit="10" stroke-width="6"/><linearGradient gradientUnits="userSpaceOnUse" id="SVGID_2_" x1="107.7266" x2="519.0086" y1="124.0136" y2="412.7865"><stop offset="0" style="stop-color:#FFFFFF"/><stop offset="1" style="stop-color:#B3B3B3"/></linearGradient><polygon fill="url(#SVGID_2_)" points="331,236.7 336,192.5      336,236.7 344.1,192.5 339.8,236.8 352.3,192.7 343.9,236.9 360.7,193 348,237 369,193.3 352.2,237.2 377.3,193.8 356.3,237.5      385.6,194.3 360.5,237.8 393.8,194.9 364.6,238.1 402,195.6 368.6,238.4 410,196.4 372.6,238.9 418.1,197.2 376.6,239.3      426,198.2 380.6,239.8 433.8,199.2 384.5,240.3 441.5,200.3 388.3,240.9 449.2,201.5 392.1,241.5 456.7,202.7 395.8,242.2      464,204.1 399.5,242.9 471.3,205.5 403,243.6 478.4,207 406.6,244.3 485.4,208.5 410,245.1 492.2,210.2 413.4,246 498.8,211.9      416.7,246.8 505.3,213.6 419.9,247.8 511.6,215.5 423,248.7 517.8,217.4 426,249.7 523.7,219.4 428.9,250.7 529.5,221.4      431.8,251.7 535,223.5 434.5,252.7 540.4,225.6 437.1,253.8 545.6,227.8 439.7,254.9 550.5,230.1 442.1,256.1 555.3,232.4      444.4,257.2 559.8,234.7 446.6,258.4 564.1,237.1 448.7,259.6 568.1,239.5 450.6,260.9 571.9,242 452.5,262.1 575.5,244.5      454.2,263.4 578.9,247.1 455.8,264.7 582,249.7 457.3,266 584.8,252.3 458.7,267.3 587.4,254.9 459.9,268.6 589.8,257.6      461,269.9 591.9,260.3 462,271.3 593.7,263 462.9,272.7 595.3,265.7 463.6,274 596.6,268.5 464.2,275.4 597.6,271.2 464.7,276.8      598.4,274 465,278.2 599,276.9 465.2,279.8 599.2,279.8 465.3,280.3 599.2,280.8 465.2,280.8 599,284.4 465,283.3 598.4,287.7      464.7,285 597.6,290.6 464.2,286.5 596.6,293.4 463.6,287.9 595.3,296.2 462.9,289.2 593.7,298.9 462,290.6 591.9,301.6 461,292      589.8,304.3 459.9,293.3 587.4,307 458.7,294.6 584.8,309.6 457.3,295.9 582,312.2 455.8,297.2 578.9,314.8 454.2,298.5      575.5,317.4 452.5,299.8 571.9,319.9 450.6,301 568.1,322.4 448.7,302.3 564.1,324.8 446.6,303.5 559.8,327.2 444.4,304.7      555.3,329.5 442.1,305.8 550.5,331.8 439.7,307 545.6,334.1 437.1,308.1 540.4,336.3 434.5,309.2 535,338.4 431.8,310.2      529.5,340.5 428.9,311.2 523.7,342.5 426,312.2 517.8,344.5 423,313.2 511.6,346.4 419.9,314.1 505.3,348.2 416.7,315 498.8,350      413.4,315.9 492.2,351.7 410,316.7 485.4,353.4 406.6,317.5 478.4,354.9 403,318.3 471.3,356.4 399.5,319 464,357.8 395.8,319.7      456.7,359.2 392.1,320.4 449.2,360.4 388.3,321 441.5,361.6 384.5,321.6 433.8,362.7 380.6,322.1 426,363.7 376.6,322.6      418.1,364.7 372.6,323 410,365.5 368.6,323.4 402,366.3 364.6,323.8 393.8,367 360.5,324.1 385.6,367.6 356.3,324.4 377.3,368.1      352.2,324.7 369,368.6 348,324.9 360.6,368.9 343.8,325 352.3,369.2 339.7,325.1 344.1,369.4 336,325.2 336,369.4 331,325.2      326,369.4 326,325.2 318.1,369.4 322.6,325.1 310.1,369.2 318.6,325 301.8,368.9 314.4,324.9 293.5,368.6 310.3,324.7      285.2,368.1 306.1,324.4 276.9,367.6 302,324.1 268.7,367 297.9,323.8 260.5,366.3 293.8,323.4 252.4,365.5 289.8,323      244.4,364.7 285.8,322.6 236.5,363.7 281.9,322.1 228.7,362.7 278,321.6 220.9,361.6 274.2,321 213.3,360.4 270.4,320.4      205.8,359.2 266.7,319.7 198.4,357.8 263,319 191.2,356.4 259.4,318.3 184.1,354.9 255.9,317.5 177.1,353.4 252.5,316.7      170.3,351.7 249.1,315.9 163.7,350 245.8,315 157.2,348.2 242.6,314.1 150.8,346.4 239.5,313.2 144.7,344.5 236.5,312.2      138.8,342.5 233.5,311.2 133,340.5 230.7,310.2 127.4,338.4 228,309.2 122.1,336.3 225.3,308.1 116.9,334.1 222.8,307      111.9,331.8 220.4,305.8 107.2,329.5 218.1,304.7 102.7,327.2 215.9,303.5 98.4,324.8 213.8,302.3 94.4,322.4 211.8,301      90.5,319.9 210,299.8 87,317.4 208.2,298.5 83.6,314.8 206.6,297.2 80.5,312.2 205.1,295.9 77.7,309.6 203.8,294.6 75.1,307      202.5,293.3 72.7,304.3 201.4,292 70.6,301.6 200.4,290.6 68.8,298.9 199.6,289.2 67.2,296.2 198.9,287.9 65.9,293.4      198.3,286.5 64.8,290.7 197.8,285.1 64,287.9 197.5,283.7 63.5,284.4 197.3,280.8 63.2,280.8 197.2,280.3 63.2,279.8      197.3,279.8 63.5,276.9 197.5,278.2 64,274 197.8,276.8 64.8,271.2 198.3,275.4 65.9,268.5 198.9,274 67.2,265.7 199.6,272.7      68.8,263 200.4,271.3 70.6,260.3 201.4,269.9 72.7,257.6 202.5,268.6 75.1,254.9 203.8,267.3 77.7,252.3 205.1,266 80.5,249.7      206.6,264.7 83.6,247.1 208.2,263.4 87,244.5 210,262.1 90.5,242 211.8,260.9 94.4,239.5 213.8,259.6 98.4,237.1 215.9,258.4      102.7,234.7 218.1,257.2 107.2,232.4 220.4,256.1 111.9,230.1 222.8,254.9 116.9,227.8 225.3,253.8 122.1,225.6 228,252.7      127.4,223.5 230.7,251.7 133,221.4 233.5,250.7 138.8,219.4 236.5,249.7 144.7,217.4 239.5,248.7 150.8,215.5 242.6,247.8      157.2,213.6 245.8,246.8 163.7,211.9 249.1,246 170.3,210.2 252.5,245.1 177.1,208.5 255.9,244.3 184.1,207 259.4,243.6      191.2,205.5 263,242.9 198.4,204.1 266.7,242.2 205.8,202.7 270.4,241.5 213.3,201.5 274.2,240.9 220.9,200.3 278,240.3      228.7,199.2 281.9,239.8 236.5,198.2 285.8,239.3 244.4,197.2 289.8,238.9 252.4,196.4 293.8,238.4 260.5,195.6 297.9,238.1      268.7,194.9 302,237.8 276.9,194.3 306.1,237.5 285.2,193.8 310.3,237.2 293.5,193.3 314.4,237 301.8,193 318.6,236.9      310.2,192.7 322.8,236.8 318.1,192.5 326,236.7 326,192.5    " stroke="#2C2D2D" stroke-miterlimit="10" stroke-width="6"/><linearGradient gradientUnits="userSpaceOnUse" id="SVGID_3_" x1="253.0695" x2="400.5695" y1="35.972" y2="409.9727"><stop offset="0" style="stop-color:#FFFFFF"/><stop offset="1" style="stop-color:#603813"/></linearGradient><path d="M349.7,198.3     c-152.1,0-275.5,37-275.5,82.7s123.3,82.7,275.5,82.7s275.5-37,275.5-82.7S501.8,198.3,349.7,198.3z" fill="url(#SVGID_3_)" stroke="#2C2D2D" stroke-miterlimit="10" stroke-width="6"/><linearGradient gradientUnits="userSpaceOnUse" id="SVGID_4_" x1="134.2723" x2="507.7481" y1="139.2742" y2="401.5023"><stop offset="0" style="stop-color:#FFFFFF"/><stop offset="1" style="stop-color:#B3B3B3"/></linearGradient><path d="M337.2,212.3     c-135.3,0-245,31.1-245,69.5s109.7,69.5,245,69.5s245-31.1,245-69.5S472.5,212.3,337.2,212.3z M167.4,286.3     c-3.2,0-5.8-2.4-5.8-5.5s2.6-5.5,5.8-5.5c3.2,0,5.8,2.4,5.8,5.5S170.6,286.3,167.4,286.3z" fill="url(#SVGID_4_)" stroke="#2C2D2D" stroke-miterlimit="10" stroke-width="6"/><linearGradient gradientUnits="userSpaceOnUse" id="SVGID_5_" x1="655.5947" x2="663.4525" y1="120.0826" y2="431.7821"><stop offset="0" style="stop-color:#FFFFFF"/><stop offset="1" style="stop-color:#FBB03B"/></linearGradient><path d="M755.2,366.6H568.7     c-27.5,0-50-22.5-50-50v-84c0-27.5,22.5-50,50-50h147c47,0,85.5,38.5,85.5,85.5v52.5C801.2,345.9,780.5,366.6,755.2,366.6z" fill="url(#SVGID_5_)" stroke="#4D4E4F" stroke-miterlimit="10" stroke-width="6"/><linearGradient gradientUnits="userSpaceOnUse" id="SVGID_6_" x1="895.2347" x2="1025.7281" y1="-9.6641" y2="444.8127"><stop offset="0" style="stop-color:#FFFFFF"/><stop offset="1" style="stop-color:#000000"/></linearGradient><path d="M942.4,193.4h-56.3     c-11.4,0-21.1,7.6-23.8,18.9h55.8c125.6,10.9,159.3,37.3,159.3,83.2v33c0,2.8-2.5,38.8-111,38.3H862.3     c2.7,11.4,12.3,18.9,23.8,18.9h211.6c10.9,0,19.9-8.9,19.9-19.9V277C1117.6,231,988.3,193.4,942.4,193.4z" fill="url(#SVGID_6_)" stroke="#4D4E4F" stroke-miterlimit="10" stroke-width="6"/><linearGradient gradientUnits="userSpaceOnUse" id="SVGID_7_" x1="790.3621" x2="783.9606" y1="81.2868" y2="416.9049"><stop offset="0" style="stop-color:#FFFFFF"/><stop offset="1" style="stop-color:#FBB03B"/></linearGradient><path d="M905,385.8H654.6     c-17.8,0-32.3-14.5-32.3-32.3V186c0-17.8,14.5-32.3,32.3-32.3h186.5c60.7,0,110.3,49.6,110.3,110.3v75.3     C951.5,364.9,930.6,385.8,905,385.8z" fill="url(#SVGID_7_)" stroke="#4D4E4F" stroke-miterlimit="10" stroke-width="6"/><linearGradient gradientUnits="userSpaceOnUse" id="SVGID_8_" x1="640.7863" x2="710.9165" y1="99.2165" y2="118.7527"><stop offset="0" style="stop-color:#FFFFFF"/><stop offset="1" style="stop-color:#000000"/></linearGradient><path d="     M744.2,41.9L744.2,41.9c-5.6-3.2-13.9-2.5-18.3,1.6l-46.7,43.4c-1.4,1.3-2.4,2.8-2.7,4.3c-0.9,1.3-1.5,2.7-1.5,4.2v93.3     c0,5.2,5.8,9.5,13,9.5s13-4.3,13-9.5V97.2l45.3-42C750.7,51.1,749.9,45.1,744.2,41.9z" fill="url(#SVGID_8_)" stroke="#4D4E4F" stroke-linecap="round" stroke-linejoin="round" stroke-miterlimit="10" stroke-width="6"/><circle cx="856.5" cy="189.5" fill="#092B3D" r="17.2" stroke="#4D4E4F" stroke-miterlimit="10" stroke-width="6"/><polygon fill="#DCEFF4" points="665.2,249.8 657.7,246.2 652.3,240      649.7,232.1 650.6,223.9 654.7,216.8 661.3,211.9 669.3,210.2 677.4,211.9 684,216.8 688.1,223.9 689,232 686.4,239.8      680.9,246.2 673.4,249.8    " stroke="#4D4E4F" stroke-miterlimit="10" stroke-width="4"/><g opacity="0.4"><linearGradient gradientUnits="userSpaceOnUse" id="SVGID_9_" x1="833.1313" x2="837.705" y1="198.8019" y2="380.2254"><stop offset="0" style="stop-color:#FFFFFF"/><stop offset="1" style="stop-color:#333333"/></linearGradient><path d="M891.6,342.3H779.2      c-16.5,0-30-13.5-30-30v-47c0-16.5,13.5-30,30-30h112.3c16.5,0,30,13.5,30,30v47C921.6,328.8,908.1,342.3,891.6,342.3z" fill="url(#SVGID_9_)" stroke="#4D4E4F" stroke-miterlimit="10" stroke-width="6"/><linearGradient gradientUnits="userSpaceOnUse" id="SVGID_10_" x1="834.883" x2="835.0615" y1="245.8228" y2="252.9007"><stop offset="0" style="stop-color:#FFFFFF"/><stop offset="1" style="stop-color:#333333"/></linearGradient><line fill="url(#SVGID_10_)" opacity="0.63" stroke="#4D4E4F" stroke-miterlimit="10" stroke-width="3" x1="750" x2="920" y1="249.3" y2="249.3"/><linearGradient gradientUnits="userSpaceOnUse" id="SVGID_11_" x1="834.883" x2="835.0615" y1="255.8228" y2="262.9007"><stop offset="0" style="stop-color:#FFFFFF"/><stop offset="1" style="stop-color:#333333"/></linearGradient><line fill="url(#SVGID_11_)" opacity="0.63" stroke="#4D4E4F" stroke-miterlimit="10" stroke-width="3" x1="750" x2="920" y1="259.3" y2="259.3"/><linearGradient gradientUnits="userSpaceOnUse" id="SVGID_12_" x1="834.883" x2="835.0615" y1="265.8228" y2="272.9007"><stop offset="0" style="stop-color:#FFFFFF"/><stop offset="1" style="stop-color:#333333"/></linearGradient><line fill="url(#SVGID_12_)" opacity="0.63" stroke="#4D4E4F" stroke-miterlimit="10" stroke-width="3" x1="750" x2="920" y1="269.3" y2="269.3"/><linearGradient gradientUnits="userSpaceOnUse" id="SVGID_13_" x1="834.883" x2="835.0615" y1="275.8228" y2="282.9007"><stop offset="0" style="stop-color:#FFFFFF"/><stop offset="1" style="stop-color:#333333"/></linearGradient><line fill="url(#SVGID_13_)" opacity="0.63" stroke="#4D4E4F" stroke-miterlimit="10" stroke-width="3" x1="750" x2="920" y1="279.3" y2="279.3"/><linearGradient gradientUnits="userSpaceOnUse" id="SVGID_14_" x1="834.883" x2="835.0615" y1="285.8228" y2="292.9007"><stop offset="0" style="stop-color:#FFFFFF"/><stop offset="1" style="stop-color:#333333"/></linearGradient><line fill="url(#SVGID_14_)" opacity="0.63" stroke="#4D4E4F" stroke-miterlimit="10" stroke-width="3" x1="750" x2="920" y1="289.3" y2="289.3"/><linearGradient gradientUnits="userSpaceOnUse" id="SVGID_15_" x1="834.883" x2="835.0615" y1="295.8228" y2="302.9007"><stop offset="0" style="stop-color:#FFFFFF"/><stop offset="1" style="stop-color:#333333"/></linearGradient><line fill="url(#SVGID_15_)" opacity="0.63" stroke="#4D4E4F" stroke-miterlimit="10" stroke-width="3" x1="750" x2="920" y1="299.3" y2="299.3"/><linearGradient gradientUnits="userSpaceOnUse" id="SVGID_16_" x1="834.883" x2="835.0615" y1="305.8228" y2="312.9007"><stop offset="0" style="stop-color:#FFFFFF"/><stop offset="1" style="stop-color:#333333"/></linearGradient><line fill="url(#SVGID_16_)" opacity="0.63" stroke="#4D4E4F" stroke-miterlimit="10" stroke-width="3" x1="750" x2="920" y1="309.3" y2="309.3"/><linearGradient gradientUnits="userSpaceOnUse" id="SVGID_17_" x1="834.883" x2="835.0615" y1="315.8228" y2="322.9007"><stop offset="0" style="stop-color:#FFFFFF"/><stop offset="1" style="stop-color:#333333"/></linearGradient><line fill="url(#SVGID_17_)" opacity="0.63" stroke="#4D4E4F" stroke-miterlimit="10" stroke-width="3" x1="750" x2="920" y1="319.3" y2="319.3"/><linearGradient gradientUnits="userSpaceOnUse" id="SVGID_18_" x1="835.8851" x2="836.0593" y1="325.9054" y2="332.8168"><stop offset="0" style="stop-color:#FFFFFF"/><stop offset="1" style="stop-color:#333333"/></linearGradient><line fill="url(#SVGID_18_)" opacity="0.63" stroke="#4D4E4F" stroke-miterlimit="10" stroke-width="3" x1="753" x2="919" y1="329.3" y2="329.3"/></g><linearGradient gradientUnits="userSpaceOnUse" id="SVGID_19_" x1="708.6057" x2="709.8705" y1="333.5918" y2="383.7635"><stop offset="0" style="stop-color:#FFFFFF"/><stop offset="1" style="stop-color:#FBB03B"/></linearGradient><path d="M764,372.3H654.4     c-5.1,0-9.2-6.2-9.2-13.8l0,0c0-7.6,4.1-13.8,9.2-13.8H764c5.1,0,9.2,6.2,9.2,13.8l0,0C773.2,366.1,769.1,372.3,764,372.3z" fill="url(#SVGID_19_)" opacity="0.5" stroke="#4D4E4F" stroke-miterlimit="10" stroke-width="3"/><text opacity="0.2" transform="matrix(1 0 0 1 654.8538 363.9477)"><tspan font-family="'MyriadPro-Regular'" font-size="18" opacity="0.7" x="0" y="0"/><tspan font-family="'MyriadPro-Regular'" font-size="18" opacity="0.7" x="73.8" y="0"/></text><text opacity="0.2" transform="matrix(1 0 0 1 211.1068 290.8644)"><tspan font-family="'ArialMT'" font-size="28" opacity="0.7" x="0" y="0"/></text></g><rect fill="none" height="162" width="594" x="291" y="535.8"/><text fill="#4D4E4F" font-family="'MyriadPro-Regular'" font-size="100" transform="matrix(1 0 0 1 345.3748 606.8322)"/></g></svg>