<?xml version="1.0" encoding="iso-8859-1"?>
<!-- Generator: Adobe Illustrator 21.1.0, SVG Export Plug-In . SVG Version: 6.00 Build 0)  -->
<svg version="1.1" id="Layer_1" xmlns="http://www.w3.org/2000/svg" xmlns:xlink="http://www.w3.org/1999/xlink" x="0px" y="0px"
	 viewBox="0 0 24 24" enable-background="new 0 0 24 24" xml:space="preserve">
<g>
	<path fill="#303C42" d="M20.9335938,3H19c0-1.1030273-0.8969727-2-2-2H7C5.8969727,1,5,1.8969727,5,3H3.0664063
		C1.9267578,3,1,3.9267578,1,5.0664063c0,0.3740234,0.1015625,0.7412109,0.2944336,1.0629883l0.5791016,0.9648438
		c1.0494995,1.7493286,2.5705566,3.2371216,4.3935547,4.328064C7.0317993,13.6761475,8.2143555,15.682312,10,16.5469971V19
		c0,0.5512695-0.4487305,1-1,1c-1.1030273,0-2,0.8969727-2,2v0.5C7,22.7763672,7.2236328,23,7.5,23h9
		c0.2763672,0,0.5-0.2236328,0.5-0.5V22c0-1.1030273-0.8969727-2-2-2c-0.5512695,0-1-0.4487305-1-1v-2.4530029
		c1.7856445-0.8646851,2.9682007-2.8708496,3.7329102-5.1246948c1.822998-1.0909424,3.3440552-2.5787354,4.3935547-4.328064
		l0.5791016-0.965332C22.8984375,5.8076172,23,5.4404297,23,5.0664063C23,3.9267578,22.0732422,3,20.9335938,3z M2.730957,6.5795898
		L2.1518555,5.6152344C2.0527344,5.4492188,2,5.2592773,2,5.0664063C2,4.4785156,2.4785156,4,3.0664063,4h1.9412231
		c0.0396729,1.5281372,0.2612305,3.7512817,0.817749,5.9315796C4.5675659,9.0095825,3.506897,7.87323,2.730957,6.5795898z
		 M21.8481445,5.6147461L21.269043,6.5795898C20.493103,7.87323,19.4324341,9.0095825,18.1746216,9.9315796
		C18.7311401,7.7512817,18.9526978,5.5281372,18.9923706,4h1.9412231C21.5214844,4,22,4.4785156,22,5.0664063
		C22,5.2592773,21.9472656,5.4492188,21.8481445,5.6147461z"/>
	<path fill="#FFCB29" d="M15,21c0.5512695,0,1,0.4487305,1,1H8c0-0.5512695,0.4487305-1,1-1c1.1030273,0,2-0.8969727,2-2v-2.1062622
		C11.3173828,16.9625244,11.6500244,17,12,17s0.6826172-0.0374756,1-0.1062622V19C13,20.1030273,13.8969727,21,15,21z"/>
	<path opacity="0.2" fill="#FFFFFF" d="M8.916687,21.4119263c1.1030273,0,2-0.7684937,2-1.713562v-0.1587524
		C10.6795044,20.3794556,9.9147949,21,9,21c-0.5177612,0-0.9307861,0.4006348-0.980835,0.9055176
		C8.1798706,21.6160889,8.5184937,21.4119263,8.916687,21.4119263z"/>
	<path opacity="0.2" fill="#FFFFFF" d="M12.5,17c0.1749878,0,0.3345947-0.0374146,0.5-0.06073v-0.0455322
		c-0.2327271,0.050415-0.4833374,0.0635986-0.7333374,0.0779419C12.3461914,16.9768677,12.418335,17,12.5,17z"/>
	<path fill="#FFCB29" d="M12,16C7.1020508,16,6,6.7426758,6,3.5V3c0-0.5512695,0.4487305-1,1-1h10c0.5512695,0,1,0.4487305,1,1v0.5
		C18,6.7426758,16.8979492,16,12,16z"/>
	<path opacity="0.2" fill="#FFFFFF" d="M6.958313,3.5V3c0-0.5512695,0.3770752-1,0.840271-1H7C6.4487305,2,6,2.4487305,6,3v0.5
		C6,6.7426758,7.1020508,16,12,16C7.8843384,16,6.958313,6.7426758,6.958313,3.5z"/>
	<path opacity="0.1" fill="#010101" d="M17,2h-0.798584c0.4631958,0,0.840271,0.4487305,0.840271,1v0.5
		C17.041687,6.7426758,16.1156616,16,12,16c4.8979492,0,6-9.2573242,6-12.5V3C18,2.4487305,17.5512695,2,17,2z"/>
	<linearGradient id="SVGID_1_" gradientUnits="userSpaceOnUse" x1="11.2234344" y1="16.6703033" x2="16.2765656" y2="21.7234344">
		<stop  offset="0" style="stop-color:#010101;stop-opacity:0.1"/>
		<stop  offset="1" style="stop-color:#010101;stop-opacity:0"/>
	</linearGradient>
	<path fill="url(#SVGID_1_)" d="M15,21c-1.1030273,0-2-0.8969727-2-2v-2.1062622C12.6826172,16.9625244,12.3499756,17,12,17
		s-0.6826172-0.0374756-1-0.1062622V18l4,4h1C16,21.4487305,15.5512695,21,15,21z"/>
	<linearGradient id="SVGID_2_" gradientUnits="userSpaceOnUse" x1="0.2078126" y1="6.3072267" x2="20.245636" y2="15.6510172">
		<stop  offset="0" style="stop-color:#FFFFFF;stop-opacity:0.2"/>
		<stop  offset="1" style="stop-color:#FFFFFF;stop-opacity:0"/>
	</linearGradient>
	<path fill="url(#SVGID_2_)" d="M20.9335938,3H19c0-1.1030273-0.8969727-2-2-2H7C5.8969727,1,5,1.8969727,5,3H3.0664063
		C1.9267578,3,1,3.9267578,1,5.0664063c0,0.3740234,0.1015625,0.7412109,0.2944336,1.0629883l0.5791016,0.9648438
		c1.0494995,1.7493286,2.5705566,3.2371216,4.3935547,4.328064C7.0317993,13.6761475,8.2143555,15.682312,10,16.5469971V19
		c0,0.5512695-0.4487305,1-1,1c-1.1030273,0-2,0.8969727-2,2v0.5C7,22.7763672,7.2236328,23,7.5,23h9
		c0.2763672,0,0.5-0.2236328,0.5-0.5V22c0-1.1030273-0.8969727-2-2-2c-0.5512695,0-1-0.4487305-1-1v-2.4530029
		c1.7856445-0.8646851,2.9682007-2.8708496,3.7329102-5.1246948c1.822998-1.0909424,3.3440552-2.5787354,4.3935547-4.328064
		l0.5791016-0.965332C22.8984375,5.8076172,23,5.4404297,23,5.0664063C23,3.9267578,22.0732422,3,20.9335938,3z M2.730957,6.5795898
		L2.1518555,5.6152344C2.0527344,5.4492188,2,5.2592773,2,5.0664063C2,4.4785156,2.4785156,4,3.0664063,4h1.9412231
		c0.0396729,1.5281372,0.2612305,3.7512817,0.817749,5.9315796C4.5675659,9.0095825,3.506897,7.87323,2.730957,6.5795898z
		 M21.8481445,5.6147461L21.269043,6.5795898C20.493103,7.87323,19.4324341,9.0095825,18.1746216,9.9315796
		C18.7311401,7.7512817,18.9526978,5.5281372,18.9923706,4h1.9412231C21.5214844,4,22,4.4785156,22,5.0664063
		C22,5.2592773,21.9472656,5.4492188,21.8481445,5.6147461z"/>
</g>
<g>
</g>
<g>
</g>
<g>
</g>
<g>
</g>
<g>
</g>
<g>
</g>
<g>
</g>
<g>
</g>
<g>
</g>
<g>
</g>
<g>
</g>
<g>
</g>
<g>
</g>
<g>
</g>
<g>
</g>
</svg>
